<?xml version="1.0" encoding="UTF-8" standalone="no"?>
<svg
   xmlns:dc="http://purl.org/dc/elements/1.1/"
   xmlns:cc="http://creativecommons.org/ns#"
   xmlns:rdf="http://www.w3.org/1999/02/22-rdf-syntax-ns#"
   xmlns:svg="http://www.w3.org/2000/svg"
   xmlns="http://www.w3.org/2000/svg"
   viewBox="0 0 400 400"
   height="400"
   width="400"
   xml:space="preserve"
   id="svg2"
   version="1.1"><metadata
     id="metadata8"><rdf:RDF><cc:Work
         rdf:about=""><dc:format>image/svg+xml</dc:format><dc:type
           rdf:resource="http://purl.org/dc/dcmitype/StillImage" /></cc:Work></rdf:RDF></metadata><defs
     id="defs6"><clipPath
       id="clipPath26"
       clipPathUnits="userSpaceOnUse"><path
         id="path24"
         d="M 0,300 H 300 V 0 H 0 Z" /></clipPath></defs><g
     transform="matrix(1.3333333,0,0,-1.3333333,0,400)"
     id="g10"><g
       transform="translate(174.1182,190.896)"
       id="g12"><path
         id="path14"
         style="fill:#4d4a4a;fill-opacity:1;fill-rule:nonzero;stroke:none"
         d="m 0,0 16.544,-30.431 22.141,12.03 14.51,-26.647 2.517,7.923 L 41.087,-10.267 18.95,-22.295 2.406,8.136 -19.605,-3.825 l -19.521,36.037 -39.569,-21.5 -2.623,-8.253 39.777,21.612 19.521,-36.036 z" /></g><g
       transform="translate(102.2749,263.3833)"
       id="g16"><path
         id="path18"
         style="fill:#4d4a4a;fill-opacity:1;fill-rule:nonzero;stroke:none"
         d="m 0,0 -33.342,-104.945 h 6.295 l 30.948,97.41 147.66,-46.912 -31.385,-98.783 -10.715,3.404 v -6.295 l 14.618,-4.644 35.017,110.219 z" /></g><g
       id="g20"><g
         clip-path="url(#clipPath26)"
         id="g22"><g
           transform="translate(78.3691,121.9814)"
           id="g28"><path
             id="path30"
             style="fill:#4d4a4a;fill-opacity:1;fill-rule:nonzero;stroke:none"
             d="m 0,0 c 7.198,0 13.055,-5.855 13.055,-13.054 0,-7.198 -5.857,-13.054 -13.055,-13.054 -7.198,0 -13.054,5.856 -13.054,13.054 C -13.054,-5.855 -7.198,0 0,0 m 0,-32.108 c 10.506,0 19.055,8.547 19.055,19.054 C 19.055,-2.548 10.506,6 0,6 c -10.507,0 -19.054,-8.548 -19.054,-19.054 0,-10.507 8.547,-19.054 19.054,-19.054" /></g><path
           id="path32"
           style="fill:#4d4a4a;fill-opacity:1;fill-rule:nonzero;stroke:none"
           d="M 44.629,146.264 H 199.562 V 42.617 H 44.629 Z m -6,-109.648 H 205.562 V 152.263 H 38.629 Z" /><g
           transform="translate(127.6416,78.7129)"
           id="g34"><path
             id="path36"
             style="fill:#4d4a4a;fill-opacity:1;fill-rule:nonzero;stroke:none"
             d="M 0,0 -17.717,17.717 -48.45,-13.015 -66.266,4.801 -76.838,-5.771 v -8.485 l 10.572,10.572 17.816,-17.817 30.733,30.733 24.16,-24.161 4.244,4.242 -6.445,6.445 31.36,31.359 30.143,-30.142 V 5.459 L 35.602,35.602 Z" /></g></g></g></g></svg>