<?xml version="1.0" encoding="UTF-8" standalone="no"?>
<svg
   xmlns:dc="http://purl.org/dc/elements/1.1/"
   xmlns:cc="http://creativecommons.org/ns#"
   xmlns:rdf="http://www.w3.org/1999/02/22-rdf-syntax-ns#"
   xmlns:svg="http://www.w3.org/2000/svg"
   xmlns="http://www.w3.org/2000/svg"
   viewBox="0 0 400 400"
   height="400"
   width="400"
   xml:space="preserve"
   id="svg2"
   version="1.1"><metadata
     id="metadata8"><rdf:RDF><cc:Work
         rdf:about=""><dc:format>image/svg+xml</dc:format><dc:type
           rdf:resource="http://purl.org/dc/dcmitype/StillImage" /></cc:Work></rdf:RDF></metadata><defs
     id="defs6"><clipPath
       id="clipPath18"
       clipPathUnits="userSpaceOnUse"><path
         id="path16"
         d="M 0,300 H 300 V 0 H 0 Z" /></clipPath></defs><g
     transform="matrix(1.3333333,0,0,-1.3333333,0,400)"
     id="g10"><g
       id="g12"><g
         clip-path="url(#clipPath18)"
         id="g14"><g
           transform="translate(90.2251,188.5015)"
           id="g20"><path
             id="path22"
             style="fill:#4d4a4a;fill-opacity:1;fill-rule:nonzero;stroke:none"
             d="m 0,0 c 10.31,0 18.697,-8.387 18.697,-18.697 0,-10.309 -8.387,-18.696 -18.697,-18.696 -10.31,0 -18.697,8.387 -18.697,18.696 C -18.697,-8.387 -10.31,0 0,0 m 0,-43.893 c 13.894,0 25.197,11.303 25.197,25.196 C 25.197,-4.803 13.894,6.5 0,6.5 c -13.894,0 -25.197,-11.303 -25.197,-25.197 0,-13.893 11.303,-25.196 25.197,-25.196" /></g><g
           transform="translate(91.3501,100.3125)"
           id="g24"><path
             id="path26"
             style="fill:#4d4a4a;fill-opacity:1;fill-rule:nonzero;stroke:none"
             d="M 0,0 42.012,42.013 77.94,6.084 82.537,10.681 70.828,22.389 114.901,66.462 157.65,23.713 v 9.193 L 114.901,75.654 66.232,26.984 v 10e-4 L 66.231,26.984 42.012,51.204 0,9.193 -24.355,33.549 -40.35,17.553 V 8.36 l 15.995,15.995 z" /></g><path
           id="path28"
           style="fill:#4d4a4a;fill-opacity:1;fill-rule:nonzero;stroke:none"
           d="M 256.75,78.305 H 43.25 v 143.391 h 213.5 z m -220,-6.5 h 226.5 V 228.196 H 36.75 Z" /></g></g></g></svg>